<?xml version="1.0" encoding="UTF-8"?>
<svg width="215px" height="180px" viewBox="0 0 215 180" version="1.1" xmlns="http://www.w3.org/2000/svg" xmlns:xlink="http://www.w3.org/1999/xlink">
    <!-- Generator: Sketch 51.2 (57519) - http://www.bohemiancoding.com/sketch -->
    <title>eclairci@svg</title>
    <desc>Created with Sketch.</desc>
    <defs></defs>
    <g id="Page-1" stroke="none" stroke-width="1" fill="none" fill-rule="evenodd">
        <g id="Eclairci" transform="translate(-905.000000, -295.000000)">
            <g id="eclairci" transform="translate(905.000000, 295.000000)">
                <g id="clouds-and-sun">
                    <path d="M129.767857,34.9512449 L126.333009,29.2452126 C115.311376,10.9341666 96.0468241,0 74.7995257,0 C41.5983811,0 14.5892857,27.0677216 14.5892857,60.3409331 C14.5892857,79.3275043 23.7213932,97.43733 39.0240374,108.781124 L41.3581568,110.509462 L44.2444334,110.829259 C46.1411295,111.037665 47.9481896,111.414953 49.6118323,111.953936 L67.4314531,117.692308 L63.4050076,99.3740753 C62.447696,95.0119069 63.5089853,90.5563149 66.3199677,87.1355701 C69.055656,83.8082489 73.0928578,81.9002494 77.4025528,81.9002494 C78.8797528,81.9002494 80.3354401,82.1266222 81.6226119,82.5362492 L91.2674369,85.759367 L95.0213892,76.2876407 C96.7603261,71.9039131 100.514278,68.6448631 105.057027,67.5740837 C106.670473,67.1967957 108.402239,67.1141516 110.062297,67.3189652 L122.611325,68.8353037 L122.095022,56.1763918 L122.019728,54.951104 C122.019728,49.8810715 123.464659,44.9080559 126.203933,40.5818197 L129.767857,34.9512449 Z" id="Shape" fill="#F0C419" fill-rule="nonzero"></path>
                    <path d="M214.913898,79.3311204 L214.623304,79.3311204 C214.74887,80.4240577 214.834971,81.5277807 214.834971,82.6566699 C214.834971,84.6448093 213.231324,86.2518587 211.247393,86.2518587 C209.263463,86.2518587 207.659815,84.6448093 207.659815,82.6566699 C207.659815,70.7601904 198.005643,61.0855376 186.134347,61.0855376 C174.263052,61.0855376 164.608879,70.7601904 164.608879,82.6566699 C164.608879,84.6448093 163.005232,86.2518587 161.021301,86.2518587 C159.03737,86.2518587 157.433723,84.6448093 157.433723,82.6566699 C157.433723,68.0458229 168.372248,55.969584 182.467843,54.1576089 C181.65705,36.0414529 166.7399,21.5384615 148.464778,21.5384615 C130.128667,21.5384615 115.168466,36.1349278 114.450951,54.3373683 C117.425053,55.0420253 120.305878,56.2068665 122.982211,57.8642485 C129.497253,61.9088358 134.053477,68.2543439 135.81139,75.7323365 C136.263425,77.666548 135.068762,79.6007595 133.142232,80.0573485 C131.212115,80.4923663 129.281998,79.3131444 128.826376,77.3825281 C126.106992,65.79883 114.479651,58.5940718 102.945588,61.32282 C91.3899994,64.0479731 84.200493,75.6820038 86.9198772,87.2621067 C87.371912,89.1927231 86.1772485,91.1269346 84.2471315,91.5835236 C83.9744756,91.648237 83.6982321,91.6769985 83.4255762,91.6769985 C81.8004033,91.6769985 80.3259088,90.5588948 79.9348628,88.905108 C78.8801148,84.4075269 78.9733918,79.9099458 79.9779137,75.6963846 C72.5946781,74.6142328 65.1361034,77.4076944 60.2713476,83.3253751 C55.7581745,88.8224186 54.4415333,95.9013452 56.0559435,102.325947 C56.059531,102.36909 56.0810565,102.405042 56.0846441,102.448184 C57.182443,106.712078 59.5645948,110.681166 63.2059864,113.690339 C64.7342947,114.955845 64.9531369,117.217219 63.6974846,118.752365 C62.9871442,119.61521 61.9610969,120.061013 60.9242868,120.061013 C60.1206694,120.061013 59.3170519,119.79497 58.6461748,119.24131 C54.2800923,115.638931 51.1553119,110.932829 49.5122012,105.647902 C35.0076232,101.858573 19.7568291,107.973989 11.8785077,120.970596 C7.15366748,128.764965 5.73657417,137.939887 7.89629613,146.802027 C10.0560181,155.667763 15.5270746,163.156541 23.3085313,167.895 C25.0018681,168.926819 25.5400048,171.134265 24.5103699,172.834789 C23.8359053,173.949297 22.6520045,174.560479 21.4429907,174.560479 C20.9658429,174.560479 20.4922826,174.431053 20.0366601,174.233317 C25.7050334,177.598414 32.2308378,179.658457 39.2086771,179.960453 L68.659105,179.971238 C87.6983816,179.665647 104.007511,167.891404 110.960237,151.23849 C118.002653,168.110711 134.649015,180 154.011174,180 C187.64113,180 215,152.583091 215,118.881792 L215,82.9299043 L214.913898,79.3311204 Z" id="Shape" fill="#F7FCFF" fill-rule="nonzero"></path>
                    <path d="M189.670799,54.3478921 C188.843095,32.3057935 170.7375,14.6153846 148.543544,14.6153846 C126.535912,14.6153846 108.555727,32.0077817 107.444954,53.7877736 C105.445564,53.8308597 103.435423,54.0678329 101.439616,54.5381888 C93.0694059,56.5129655 86.4441842,62.0136163 82.7033884,69.0869074 C72.3767854,66.9864631 61.7491989,70.6415953 54.9340709,78.932067 C50.4515656,84.3896317 48.2013551,91.1685016 48.4485916,98.1735732 C31.8586639,95.1790936 14.9820851,102.568349 6.00990823,117.361222 C0.291220398,126.786293 -1.4179363,137.877357 1.19058797,148.591418 C3.79911224,159.305479 10.4171676,168.360728 19.8229042,174.091171 C20.4033725,174.446631 21.0483373,174.615385 21.6825527,174.615385 C22.8936533,174.615385 24.0725056,174.001409 24.7461355,172.891943 C25.774496,171.193635 25.2370253,168.989066 23.5457843,167.958592 C15.7739586,163.226309 10.3096735,155.747291 8.1526246,146.89311 C5.99557568,138.04252 7.41091509,128.879556 12.1299075,121.095345 C19.998478,108.119267 35.2303965,102.011821 49.7170224,105.792621 C51.3580995,111.074251 54.4825956,115.770629 58.8396911,119.368313 C59.5097378,119.91766 60.3123607,120.186948 61.1149835,120.186948 C62.1505103,120.186948 63.1752877,119.741725 63.884749,118.880005 C65.1424303,117.34686 64.9202758,115.084843 63.3938591,113.824576 C59.7533912,110.822916 57.3777709,106.85541 56.2813307,102.597073 C56.2777476,102.553987 56.2562487,102.518082 56.2526656,102.474996 C54.6402536,96.0587669 55.9552652,88.9890662 60.4628525,83.499187 C65.3215872,77.5892188 72.7709306,74.7993979 80.1450281,75.8801393 C79.1417495,80.0917995 79.0450048,84.5799284 80.1020304,89.0716478 C80.4890093,90.7268697 81.965262,91.8399257 83.5884234,91.8399257 C83.8607419,91.8399257 84.1366435,91.8076112 84.408962,91.7465726 C86.3366901,91.2905787 87.5298749,89.358888 87.0783996,87.4307879 C84.3623812,75.8657773 91.5429892,64.2469092 103.084276,61.5253079 C114.604064,58.800116 126.217013,65.9954843 128.933032,77.5640853 C129.38809,79.4921855 131.315818,80.6698705 133.243546,80.2354196 C135.167691,79.7794257 136.360876,77.847735 135.909401,75.9160444 C134.153663,68.4477979 129.603078,62.1105599 123.0961,58.0712439 C120.423079,56.4124314 117.54582,55.2526989 114.575399,54.5489603 C115.292026,36.370243 130.233711,21.7928004 148.547127,21.7928004 C166.799631,21.7928004 181.701901,36.2732994 182.508107,54.3694352 C168.429959,56.1790487 157.504972,68.2395487 157.504972,82.8313534 C157.504972,84.8169016 159.106634,86.4218565 161.08811,86.4218565 C163.069585,86.4218565 164.671247,84.8169016 164.671247,82.8313534 C164.671247,70.9503786 174.313471,61.2883347 186.170074,61.2883347 C198.026677,61.2883347 207.833725,70.9503786 207.833725,82.8313534 C207.833725,82.9318875 207.833725,87.595951 207.833725,93.6028627 C207.833725,95.5848205 209.43897,97.1933659 211.416862,97.1933659 C213.394754,97.1933659 215,95.5848205 215,93.6028627 L215,82.8313534 C214.992834,68.1856912 203.824193,56.0856956 189.670799,54.3478921 Z" id="Shape" fill="#A0DBFF" fill-rule="nonzero"></path>
                    <path d="M154.575549,179.230769 C136.657721,179.230769 120.379268,169.885332 111.339286,154.903249 C102.299304,169.885332 86.0208503,179.230769 68.103022,179.230769 C66.1141538,179.230769 64.5,177.629001 64.5,175.647396 C64.5,173.665791 66.1141538,172.064023 68.103022,172.064023 C85.5884876,172.064023 101.254427,161.675824 108.017299,145.597229 L111.339286,137.692308 L114.661272,145.597229 C121.420541,161.672241 137.090084,172.064023 154.575549,172.064023 C156.564418,172.064023 158.178571,173.665791 158.178571,175.647396 C158.178571,177.629001 156.568021,179.230769 154.575549,179.230769 Z" id="Shape" fill="#A0DBFF" fill-rule="nonzero"></path>
                    <path d="M196.879083,129.528132 C195.237917,115.098791 183.108333,103.846154 168.416667,103.846154 C152.610583,103.846154 139.75,116.861209 139.75,132.857143 C139.75,134.858901 141.355333,136.483516 143.333333,136.483516 C145.311333,136.483516 146.916667,134.858901 146.916667,132.857143 C146.916667,120.857473 156.559417,111.098901 168.416667,111.098901 C179.177417,111.098901 188.089167,119.145824 189.647917,129.600659 C179.625333,131.446484 172,140.323846 172,150.989011 C172,152.990769 173.605333,154.615385 175.583333,154.615385 C177.561333,154.615385 179.166667,152.990769 179.166667,150.989011 C179.166667,142.989231 185.595167,136.483516 193.5,136.483516 C201.404833,136.483516 207.833333,142.989231 207.833333,150.989011 C207.833333,152.990769 209.438667,154.615385 211.416667,154.615385 C213.394667,154.615385 215,152.990769 215,150.989011 C215,140.160659 207.131,131.178132 196.879083,129.528132 Z" id="Shape" fill="#A0DBFF" fill-rule="nonzero"></path>
                </g>
            </g>
        </g>
    </g>
</svg>