<?xml version="1.0" encoding="UTF-8"?>
<svg width="215px" height="257px" viewBox="0 0 215 257" version="1.1" xmlns="http://www.w3.org/2000/svg" xmlns:xlink="http://www.w3.org/1999/xlink">
    <!-- Generator: Sketch 51.2 (57519) - http://www.bohemiancoding.com/sketch -->
    <title>orage@svg</title>
    <desc>Created with Sketch.</desc>
    <defs></defs>
    <g id="Page-1" stroke="none" stroke-width="1" fill="none" fill-rule="evenodd">
        <g id="Orage" transform="translate(-907.000000, -336.000000)">
            <g id="orage" transform="translate(907.000000, 336.000000)">
                <g id="Group">
                    <g id="bolt" transform="translate(72.429078, 113.629080)" fill="#FFE500" fill-rule="nonzero">
                        <polygon id="Shape" points="35.070922 0 8.09328969 45.9868988 24.2798691 45.9868988 2.69776323 89.268686 18.8843426 89.268686 0 143.37092 53.9552646 73.0380158 40.4664484 73.0380158 64.7463175 27.051117 53.9552646 27.051117 70.141844 0"></polygon>
                    </g>
                    <g id="clouds" fill-rule="nonzero">
                        <path d="M189.816317,39.7693515 C188.987977,17.7068132 170.868492,0 148.657509,0 C126.632992,0 108.639013,17.4085251 107.527388,39.2087136 C105.526463,39.2518396 103.51478,39.4890325 101.517441,39.9598246 C93.1408099,41.9364325 86.5105053,47.442184 82.7668395,54.5220342 C72.4323138,52.4196422 61.7965737,56.0781638 54.9762171,64.3763232 C50.4902727,69.8389488 48.2383358,76.6241047 48.485762,83.6356721 C31.8831063,80.6384157 14.9935796,88.0345232 6.01451911,102.841113 C0.291443826,112.274924 -1.41902416,123.376273 1.19150141,134.100269 C3.80202697,144.824266 10.4251598,153.887912 19.8381126,159.623668 C20.4190263,159.979458 21.0644859,160.148368 21.6991878,160.148368 C22.9112176,160.148368 24.0909743,159.533823 24.765121,158.423328 C25.7942705,156.723445 25.2563875,154.516832 23.563849,153.485402 C15.7860606,148.748731 10.3175832,141.262778 8.1588794,132.400387 C6.00017556,123.541589 7.41660084,114.370128 12.1392137,106.578699 C20.0138211,93.5905884 35.2574257,87.4774791 49.7551659,91.2617848 C51.3975021,96.5483126 54.5243953,101.249046 58.8848336,104.850066 C59.5553945,105.399922 60.3586331,105.66946 61.1618717,105.66946 C62.198193,105.66946 63.2237566,105.223824 63.9337622,104.361305 C65.1924085,102.826738 64.9700835,100.562624 63.4424957,99.3011883 C59.7992348,96.2967443 57.4217918,92.3255593 56.3245105,88.0632738 C56.3209246,88.0201478 56.2994093,87.9842095 56.2958234,87.9410835 C54.6821743,81.5189047 55.9981948,74.4426483 60.5092403,68.9476783 C65.3717028,63.0322298 72.8267614,60.2398219 80.2065164,61.3215655 C79.2024681,65.5371311 79.1056491,70.0294219 80.1634857,74.5253065 C80.5507615,76.1820633 82.0281468,77.2961514 83.6525535,77.2961514 C83.9250809,77.2961514 84.2011942,77.2638069 84.4737216,77.2027117 C86.4029287,76.746295 87.597029,74.8128131 87.1452073,72.882925 C84.4271051,61.3071902 91.6132222,49.6775479 103.163363,46.9534228 C114.691989,44.2257039 126.313848,51.4277444 129.031951,63.007073 C129.487358,64.9369611 131.416565,66.1157382 133.345772,65.6808844 C135.271394,65.2244677 136.465494,63.2909858 136.013672,61.3575038 C134.256588,53.882332 129.702511,47.5392175 123.190541,43.4961559 C120.51547,41.8358052 117.636002,40.6749973 114.663302,39.9706061 C115.38048,21.7750317 130.333627,7.18407135 148.661095,7.18407135 C166.927602,7.18407135 181.841305,21.6779982 182.64813,39.7909145 C168.55918,41.6022061 157.625812,53.6738898 157.625812,68.2792254 C157.625812,70.2666148 159.228703,71.873058 161.211698,71.873058 C163.194694,71.873058 164.797585,70.2666148 164.797585,68.2792254 C164.797585,56.3872334 174.447207,46.7162299 186.312906,46.7162299 C198.178605,46.7162299 207.828226,56.3872334 207.828226,68.2792254 C207.828226,70.2666148 209.431118,71.873058 211.414113,71.873058 C213.397109,71.873058 215,70.2666148 215,68.2792254 C214.996414,53.6235761 203.98057,41.5123603 189.816317,39.7693515 Z" id="Shape" fill="#262D46"></path>
                        <path d="M214.913878,64.7151001 L214.623216,64.7151001 C214.74881,65.8091521 214.834933,66.9140007 214.834933,68.0440413 C214.834933,70.0342082 213.230907,71.6428966 211.24651,71.6428966 C209.262112,71.6428966 207.658087,70.0342082 207.658087,68.0440413 C207.658087,56.1354291 198.00164,46.4509096 186.127548,46.4509096 C174.253457,46.4509096 164.59701,56.1354291 164.59701,68.0440413 C164.59701,70.0342082 162.992985,71.6428966 161.008587,71.6428966 C159.024189,71.6428966 157.420164,70.0342082 157.420164,68.0440413 C157.420164,53.4182934 168.361266,41.3297385 182.46018,39.5159155 C181.649196,21.3812837 166.728534,6.86350148 148.449107,6.86350148 C130.108677,6.86350148 115.144953,21.4748539 114.427268,39.6958582 C117.402071,40.4012339 120.283574,41.567263 122.960538,43.2263353 C129.477114,47.2750474 134.034411,53.627027 135.792739,61.112646 C136.24488,63.0488301 135.049935,64.9850143 133.122952,65.4420689 C131.19238,65.8775304 129.261809,64.6971059 128.806079,62.7645206 C126.086055,51.1690089 114.455976,43.9569029 102.919196,46.688434 C91.360885,49.4163663 84.1696852,61.062262 86.8897099,72.6541749 C87.3418512,74.5867602 86.1469063,76.5229443 84.2163347,76.9799989 C83.9436146,77.0447783 83.667306,77.0735692 83.3945859,77.0735692 C81.7690303,77.0735692 80.2941884,75.9543252 79.9030503,74.2988518 C78.8480539,69.7966838 78.9413529,65.2945158 79.9461114,61.0766574 C72.5611368,59.993402 65.1008053,62.7897126 60.2349037,68.7134284 C55.7206676,74.2160781 54.4037163,81.3022241 56.0185067,87.7333785 C56.0220951,87.7765648 56.0436256,87.8125533 56.0472141,87.8557396 C57.1452715,92.123982 59.5279844,96.0971182 63.1702338,99.1093601 C64.698902,100.376157 64.9177958,102.639837 63.6618477,104.176548 C62.95134,105.040274 61.925051,105.486532 60.8879967,105.486532 C60.08419,105.486532 59.2803832,105.220216 58.6093481,104.665993 C54.2422373,101.05994 51.1167208,96.3490381 49.4732231,91.0587208 C34.9652288,87.2655273 19.7108426,93.3871802 11.8306657,106.397042 C7.10471255,114.19936 5.68728546,123.383639 7.84751611,132.254817 C10.0077468,141.129594 15.4800919,148.62601 23.2633814,153.369301 C24.9571171,154.402173 25.4953805,156.61187 24.4655031,158.314128 C23.7908796,159.429773 22.6067,160.041579 21.3974014,160.041579 C20.9201412,160.041579 20.4464693,159.91202 19.9907396,159.714083 C25.660448,163.082612 32.1877894,165.144756 39.1672722,165.447059 L153.996809,165.486647 C187.634686,165.486647 215,138.041777 215,104.306107 L215,68.3175543 L214.913878,64.7151001 Z" id="Shape" fill="#3F4969"></path>
                        <path d="M193.331467,132.649503 C193.331467,118.77536 182.139028,107.52819 168.3324,107.52819 C154.525773,107.52819 143.333333,118.77536 143.333333,132.649503 C143.333333,146.523645 154.525773,157.770815 168.3324,157.770815 C171.20015,157.770815 173.939334,157.261211 176.503524,156.371199 C178.907005,163.430288 185.492474,168.537092 193.331467,168.537092 C203.191813,168.537092 211.187943,160.501861 211.187943,150.593297 C211.187943,140.684734 203.195384,132.649503 193.331467,132.649503 Z" id="Shape" fill="#3F4969"></path>
                        <path d="M196.824005,129.938721 C195.17785,115.633549 183.011398,104.477745 168.275076,104.477745 C152.42095,104.477745 139.521277,117.380801 139.521277,133.239084 C139.521277,135.223617 141.131489,136.834252 143.115502,136.834252 C145.099514,136.834252 146.709726,135.223617 146.709726,133.239084 C146.709726,121.342675 156.381786,111.66808 168.275076,111.66808 C179.068533,111.66808 188.007371,119.645756 189.570859,130.010624 C179.517812,131.840564 171.869301,140.641534 171.869301,151.214922 C171.869301,153.199454 173.479514,154.810089 175.463526,154.810089 C177.447538,154.810089 179.057751,153.199454 179.057751,151.214922 C179.057751,143.283982 185.50579,136.834252 193.43465,136.834252 C201.363511,136.834252 207.81155,143.283982 207.81155,151.214922 C207.81155,153.199454 209.421763,154.810089 211.405775,154.810089 C213.389787,154.810089 215,153.199454 215,151.214922 C215,140.476156 207.107082,131.574522 196.824005,129.938721 Z" id="Shape" fill="#262D46"></path>
                    </g>
                </g>
            </g>
        </g>
    </g>
</svg>