<?xml version="1.0" encoding="UTF-8"?>
<svg width="215px" height="215px" viewBox="0 0 215 215" version="1.1" xmlns="http://www.w3.org/2000/svg" xmlns:xlink="http://www.w3.org/1999/xlink">
    <!-- Generator: Sketch 51.2 (57519) - http://www.bohemiancoding.com/sketch -->
    <title>sun@svg</title>
    <desc>Created with Sketch.</desc>
    <defs></defs>
    <g id="Page-1" stroke="none" stroke-width="1" fill="none" fill-rule="evenodd">
        <g id="Beau" transform="translate(-900.000000, -262.000000)">
            <g id="sun" transform="translate(900.000000, 262.000000)">
                <g id="sunny">
                    <g id="Group" fill="#F0C419" fill-rule="nonzero">
                        <path d="M107.5,0 C105.522,0 103.916667,1.60533333 103.916667,3.58333333 L103.916667,25.0833333 C103.916667,27.0613333 105.522,28.6666667 107.5,28.6666667 C109.478,28.6666667 111.083333,27.0613333 111.083333,25.0833333 L111.083333,3.58333333 C111.083333,1.60533333 109.478,0 107.5,0 Z" id="Shape"></path>
                        <path d="M107.5,186.333333 C105.522,186.333333 103.916667,187.938667 103.916667,189.916667 L103.916667,211.416667 C103.916667,213.394667 105.522,215 107.5,215 C109.478,215 111.083333,213.394667 111.083333,211.416667 L111.083333,189.916667 C111.083333,187.938667 109.478,186.333333 107.5,186.333333 Z" id="Shape"></path>
                        <path d="M211.416667,103.916667 L189.916667,103.916667 C187.938667,103.916667 186.333333,105.522 186.333333,107.5 C186.333333,109.478 187.938667,111.083333 189.916667,111.083333 L211.416667,111.083333 C213.394667,111.083333 215,109.478 215,107.5 C215,105.522 213.394667,103.916667 211.416667,103.916667 Z" id="Shape"></path>
                        <path d="M28.6666667,107.5 C28.6666667,105.522 27.0613333,103.916667 25.0833333,103.916667 L3.58333333,103.916667 C1.60533333,103.916667 0,105.522 0,107.5 C0,109.478 1.60533333,111.083333 3.58333333,111.083333 L25.0833333,111.083333 C27.0613333,111.083333 28.6666667,109.478 28.6666667,107.5 Z" id="Shape"></path>
                        <path d="M165.779333,52.804 C166.696667,52.804 167.614,52.4528333 168.31275,51.7540833 L188.86675,31.2000833 C190.267833,29.799 190.267833,27.5343333 188.86675,26.13325 C187.465667,24.7321667 185.201,24.7321667 183.799917,26.13325 L163.245917,46.68725 C161.844833,48.0883333 161.844833,50.353 163.245917,51.7540833 C163.944667,52.4564167 164.862,52.804 165.779333,52.804 Z" id="Shape"></path>
                        <path d="M46.68725,163.245917 L26.13325,183.799917 C24.7321667,185.201 24.7321667,187.465667 26.13325,188.86675 C26.832,189.5655 27.7493333,189.916667 28.6666667,189.916667 C29.584,189.916667 30.5013333,189.5655 31.2000833,188.86675 L51.7540833,168.31275 C53.1551667,166.911667 53.1551667,164.647 51.7540833,163.245917 C50.353,161.844833 48.0883333,161.844833 46.68725,163.245917 Z" id="Shape"></path>
                        <path d="M168.31275,163.245917 C166.911667,161.844833 164.647,161.844833 163.245917,163.245917 C161.844833,164.647 161.844833,166.911667 163.245917,168.31275 L183.799917,188.86675 C184.498667,189.5655 185.416,189.916667 186.333333,189.916667 C187.250667,189.916667 188.168,189.5655 188.86675,188.86675 C190.267833,187.465667 190.267833,185.201 188.86675,183.799917 L168.31275,163.245917 Z" id="Shape"></path>
                        <path d="M31.2000833,26.13325 C29.799,24.7321667 27.5343333,24.7321667 26.13325,26.13325 C24.7321667,27.5343333 24.7321667,29.799 26.13325,31.2000833 L46.68725,51.7540833 C47.386,52.4528333 48.3033333,52.804 49.2206667,52.804 C50.138,52.804 51.0553333,52.4528333 51.7540833,51.7540833 C53.1551667,50.353 53.1551667,48.0883333 51.7540833,46.68725 L31.2000833,26.13325 Z" id="Shape"></path>
                        <path d="M180.066083,76.6976667 C180.646583,78.0629167 181.972417,78.8835 183.366333,78.8835 C183.832167,78.8835 184.30875,78.7903333 184.763833,78.5968333 L194.661,74.3971667 C196.481333,73.6231667 197.334167,71.51975 196.560167,69.6994167 C195.786167,67.8790833 193.679167,67.02625 191.862417,67.80025 L181.96525,71.9999167 C180.141333,72.7739167 179.292083,74.8773333 180.066083,76.6976667 Z" id="Shape"></path>
                        <path d="M34.9339167,138.302333 C34.1599167,136.482 32.0565,135.629167 30.2361667,136.403167 L20.339,140.602833 C18.5186667,141.376833 17.6658333,143.48025 18.4398333,145.300583 C19.0203333,146.665833 20.3461667,147.486417 21.7400833,147.486417 C22.2059167,147.486417 22.6825,147.39325 23.1375833,147.19975 L33.03475,143.000083 C34.8586667,142.226083 35.7079167,140.122667 34.9339167,138.302333 Z" id="Shape"></path>
                        <path d="M195.223583,139.079917 L185.258333,135.048667 C183.42725,134.306917 181.334583,135.195583 180.592833,137.03025 C179.851083,138.864917 180.73975,140.954 182.574417,141.69575 L192.54325,145.723417 C192.984,145.899 193.439083,145.985 193.883417,145.985 C195.302417,145.985 196.646167,145.139333 197.20875,143.741833 C197.946917,141.91075 197.061833,139.821667 195.223583,139.079917 Z" id="Shape"></path>
                        <path d="M19.7764167,75.9236667 L29.7416667,79.9513333 C30.1824167,80.1269167 30.6375,80.2129167 31.0818333,80.2129167 C32.5008333,80.2129167 33.8445833,79.36725 34.4071667,77.96975 C35.1489167,76.1350833 34.26025,74.046 32.4255833,73.30425 L22.45675,69.2765833 C20.6185,68.5348333 18.533,69.4199167 17.79125,71.2581667 C17.0530833,73.08925 17.9381667,75.1783333 19.7764167,75.9236667 Z" id="Shape"></path>
                        <path d="M143.000083,181.96525 C142.226083,180.144917 140.122667,179.295667 138.302333,180.066083 C136.482,180.840083 135.629167,182.9435 136.403167,184.763833 L140.602833,194.661 C141.183333,196.02625 142.509167,196.846833 143.903083,196.846833 C144.368917,196.846833 144.8455,196.753667 145.300583,196.560167 C147.120917,195.786167 147.97375,193.68275 147.19975,191.862417 L143.000083,181.96525 Z" id="Shape"></path>
                        <path d="M75.3001667,35.2205833 C75.766,35.2205833 76.2425833,35.1274167 76.6976667,34.9339167 C78.518,34.1599167 79.3708333,32.0565 78.5968333,30.2361667 L74.3971667,20.339 C73.62675,18.5150833 71.5233333,17.66225 69.6994167,18.4398333 C67.8790833,19.2138333 67.02625,21.31725 67.80025,23.1375833 L71.9999167,33.03475 C72.5768333,34.4 73.90625,35.2205833 75.3001667,35.2205833 Z" id="Shape"></path>
                        <path d="M77.96975,180.592833 C76.1386667,179.85825 74.046,180.736167 73.30425,182.574417 L69.2765833,192.54325 C68.5348333,194.377917 69.4235,196.467 71.2581667,197.20875 C71.6989167,197.384333 72.154,197.470333 72.5983333,197.470333 C74.0173333,197.470333 75.3610833,196.624667 75.9236667,195.227167 L79.9513333,185.258333 C80.6930833,183.423667 79.8044167,181.334583 77.96975,180.592833 Z" id="Shape"></path>
                        <path d="M138.370417,34.66875 C139.789417,34.66875 141.133167,33.8230833 141.69575,32.4255833 L145.723417,22.45675 C146.465167,20.6220833 145.5765,18.533 143.741833,17.79125 C141.91075,17.0495 139.818083,17.9381667 139.076333,19.7728333 L135.048667,29.7416667 C134.306917,31.5763333 135.195583,33.6654167 137.03025,34.4071667 C137.471,34.58275 137.926083,34.66875 138.370417,34.66875 Z" id="Shape"></path>
                    </g>
                    <circle id="Oval" fill="#F0C419" fill-rule="nonzero" cx="107.5" cy="107.5" r="71.970339"></circle>
                    <circle id="Oval" fill="#EDE21B" fill-rule="nonzero" cx="106.588983" cy="106.588983" r="53.75"></circle>
                </g>
            </g>
        </g>
    </g>
</svg>