<?xml version="1.0" encoding="UTF-8"?>
<svg width="105px" height="83px" viewBox="0 0 105 83" version="1.1" xmlns="http://www.w3.org/2000/svg" xmlns:xlink="http://www.w3.org/1999/xlink">
    <!-- Generator: Sketch 51.2 (57519) - http://www.bohemiancoding.com/sketch -->
    <title>couronne@svg</title>
    <desc>Created with Sketch.</desc>
    <defs></defs>
    <g id="Page-1" stroke="none" stroke-width="1" fill="none" fill-rule="evenodd">
        <g id="Accueil" transform="translate(-1045.000000, -513.000000)">
            <g id="couronne" transform="translate(1028.000000, 502.000000)">
                <g id="corona" transform="translate(63.886759, 52.500000) rotate(19.000000) translate(-63.886759, -52.500000) translate(8.886759, 16.000000)">
                    <path d="M100.334149,9.06535323 C95.2966301,9.06535323 91.2127851,13.1242161 91.2127851,18.1309189 C91.2147091,19.0813086 91.3686309,20.0253241 91.6687785,20.9276949 L84.2713388,25.6010284 C79.4007822,28.6852797 72.9792496,27.6630743 69.3214687,23.221336 L62.070041,14.405213 C63.224027,12.8611751 63.847838,10.9890796 63.8486931,9.06556571 C63.8486931,4.05886286 59.764848,0 54.7273291,0 C49.6898101,0 45.6059651,4.05886286 45.6059651,9.06556571 C45.6068202,10.9890796 46.2306311,12.8611751 47.3846171,14.405213 L40.1331894,23.221336 C36.4760498,27.6605247 30.0575102,28.6825176 25.1880225,25.6010284 L17.786521,20.9276949 C18.0868823,20.0253241 18.2408041,19.0813086 18.2425144,18.1309189 C18.2433695,13.1242161 14.1603796,9.06471582 9.12264684,9.06386593 C4.08534166,9.06301603 0.000855272942,13.1212415 1.51746956e-07,18.1279443 C-0.000854969448,22.8278368 3.61245964,26.7490175 8.32310852,27.1601518 L13.7137925,59.2972604 C13.8965747,60.3900066 14.8474695,61.191453 15.9621199,61.191878 L93.4931795,61.191878 C94.60783,61.191453 95.5587248,60.3900066 95.7415069,59.2972604 L101.132191,27.1601518 C106.149615,26.7128972 109.852289,22.3077041 109.402282,17.3209736 C108.981135,12.6531645 105.049501,9.07406461 100.334149,9.06535323 Z" id="Shape" fill="#FFC107" fill-rule="nonzero"></path>
                    <ellipse id="Oval" fill="#FFA000" fill-rule="nonzero" cx="55.3080436" cy="59.4267276" rx="38.8333072" ry="11.1792854"></ellipse>
                    <path d="M55.3080436,72.9595468 C34.8381836,72.9595468 14.1212026,68.3133494 14.1212026,59.4267276 C14.1212026,50.5401059 34.8381836,45.8939085 55.3080436,45.8939085 C75.7779035,45.8939085 96.4948845,50.5401059 96.4948845,59.4267276 C96.4948845,68.3133494 75.7779035,72.9595468 55.3080436,72.9595468 Z M55.3080436,50.4047777 C31.2731622,50.4047777 18.6974468,56.2689289 18.6974468,59.4267276 C18.6974468,62.5845264 31.2731622,68.4486776 55.3080436,68.4486776 C79.3429249,68.4486776 91.9186403,62.5845264 91.9186403,59.4267276 C91.9186403,56.2689289 79.3429249,50.4047777 55.3080436,50.4047777 Z" id="Shape" fill="#FFD54F" fill-rule="nonzero"></path>
                </g>
            </g>
        </g>
    </g>
</svg>