<?xml version="1.0" encoding="UTF-8"?>
<svg width="215px" height="280px" viewBox="0 0 215 280" version="1.1" xmlns="http://www.w3.org/2000/svg" xmlns:xlink="http://www.w3.org/1999/xlink">
    <!-- Generator: Sketch 51.2 (57519) - http://www.bohemiancoding.com/sketch -->
    <title>neige@svg</title>
    <desc>Created with Sketch.</desc>
    <defs></defs>
    <g id="Page-1" stroke="none" stroke-width="1" fill="none" fill-rule="evenodd">
        <g id="Neige" transform="translate(-907.000000, -343.000000)">
            <g id="neige" transform="translate(907.000000, 343.000000)">
                <g id="Group">
                    <g id="snowing" transform="translate(65.567376, 180.054496)" fill="#E6E7E8" fill-rule="nonzero">
                        <path d="M82.0720554,57.0299728 C81.5173771,56.0858946 80.2898758,55.7626612 79.33671,56.3086104 L73.6697792,59.529119 L73.6697792,53.0881017 C73.6697792,52.0001453 72.7746845,51.1171662 71.6673301,51.1171662 C70.5599758,51.1171662 69.6648811,52.0001453 69.6648811,53.0881017 L69.6648811,59.529119 L63.9979502,56.3086104 C63.0407796,55.7646322 61.8152807,56.0858946 61.2626048,57.0299728 C60.7099289,57.9740509 61.0383305,59.1782925 61.9955012,59.7222707 L67.662432,62.9427793 L61.9955012,66.1632879 C61.0363281,66.7072661 60.7079264,67.9134787 61.2626048,68.8555858 C61.6350603,69.4882561 62.3058808,69.8410536 62.9987281,69.8410536 C63.3391445,69.8410536 63.6835657,69.7563034 63.9979502,69.5769482 L69.6648811,66.3564396 L69.6648811,72.7974569 C69.6648811,73.8854133 70.5599758,74.7683924 71.6673301,74.7683924 C72.7746845,74.7683924 73.6697792,73.8854133 73.6697792,72.7974569 L73.6697792,66.3564396 L79.33671,69.5769482 C79.6510945,69.7563034 79.9955158,69.8410536 80.3359321,69.8410536 C81.0287795,69.8410536 81.7016024,69.4882561 82.0720554,68.8555858 C82.6247314,67.9115077 82.2963297,66.7072661 81.3391591,66.1632879 L75.6722282,62.9427793 L81.3391591,59.7222707 C82.2963297,59.1782925 82.6247314,57.9720799 82.0720554,57.0299728 Z" id="Shape"></path>
                        <path d="M40.9018427,57.0299728 C40.3471643,56.0858946 39.119663,55.7626612 38.1664973,56.3086104 L32.4995664,59.529119 L32.4995664,53.0881017 C32.4995664,52.0001453 31.6044717,51.1171662 30.4971174,51.1171662 C29.389763,51.1171662 28.4946683,52.0001453 28.4946683,53.0881017 L28.4946683,59.529119 L22.8277375,56.3086104 C21.8705668,55.7646322 20.645068,56.0858946 20.092392,57.0299728 C19.5397161,57.9740509 19.8681177,59.1782925 20.8252884,59.7222707 L26.4922192,62.9427793 L20.8252884,66.1632879 C19.8661153,66.7072661 19.5377136,67.9134787 20.092392,68.8555858 C20.4648476,69.4882561 21.135668,69.8410536 21.8285154,69.8410536 C22.1689317,69.8410536 22.513353,69.7563034 22.8277375,69.5769482 L28.4946683,66.3564396 L28.4946683,72.7974569 C28.4946683,73.8854133 29.389763,74.7683924 30.4971174,74.7683924 C31.6044717,74.7683924 32.4995664,73.8854133 32.4995664,72.7974569 L32.4995664,66.3564396 L38.1664973,69.5769482 C38.4808818,69.7563034 38.825303,69.8410536 39.1657193,69.8410536 C39.8585667,69.8410536 40.5313896,69.4882561 40.9018427,68.8555858 C41.4545186,67.9115077 41.126117,66.7072661 40.1689463,66.1632879 L34.5020155,62.9427793 L40.1689463,59.7222707 C41.126117,59.1782925 41.4545186,57.9720799 40.9018427,57.0299728 Z" id="Shape"></path>
                        <path d="M82.0721511,5.91280654 C81.5175229,4.96872843 80.2901326,4.645495 79.3370531,5.19144414 L73.6706348,8.41195277 L73.6706348,1.97093551 C73.6706348,0.88297911 72.775621,0 71.6683669,0 C70.5611127,0 69.6660989,0.88297911 69.6660989,1.97093551 L69.6660989,8.41195277 L63.9976784,5.19144414 C63.0405943,4.645495 61.8152064,4.97069936 61.2625804,5.91280654 C60.7099545,6.85491371 61.0383264,8.06112625 61.9954105,8.60510445 L67.6618287,11.8256131 L61.9954105,15.0461217 C61.0363241,15.5900999 60.7079522,16.7963124 61.2625804,17.7384196 C61.6350022,18.3710899 62.305762,18.7238874 62.9985467,18.7238874 C63.3389323,18.7238874 63.6833223,18.6391371 63.9976784,18.459782 L69.6640967,15.2392734 L69.6640967,21.6802906 C69.6640967,22.768247 70.5591104,23.6512262 71.6663646,23.6512262 C72.7736188,23.6512262 73.6686325,22.768247 73.6686325,21.6802906 L73.6686325,15.2392734 L79.3350508,18.459782 C79.6494069,18.6391371 79.993797,18.7238874 80.3341825,18.7238874 C81.0269672,18.7238874 81.6997292,18.3710899 82.0701488,17.7384196 C82.6227748,16.7943415 82.2944028,15.5900999 81.3373187,15.0461217 L75.6709005,11.8256131 L81.3373187,8.60510445 C82.2964051,8.06112625 82.624777,6.85491371 82.0721511,5.91280654 Z" id="Shape"></path>
                        <path d="M40.9019383,5.91280654 C40.3473101,4.96872843 39.1199198,4.645495 38.1668403,5.19144414 L32.500422,8.41195277 L32.500422,1.97093551 C32.500422,0.88297911 31.6054083,0 30.4981541,0 C29.3908999,0 28.4958862,0.88297911 28.4958862,1.97093551 L28.4958862,8.41195277 L22.8274656,5.19144414 C21.8703816,4.645495 20.6449936,4.97069936 20.0923676,5.91280654 C19.5397417,6.85491371 19.8681136,8.06112625 20.8251977,8.60510445 L26.491616,11.8256131 L20.8251977,15.0461217 C19.8661114,15.5900999 19.5377394,16.7963124 20.0923676,17.7384196 C20.4647895,18.3710899 21.1355492,18.7238874 21.8283339,18.7238874 C22.1687195,18.7238874 22.5131096,18.6391371 22.8274656,18.459782 L28.4938839,15.2392734 L28.4938839,21.6802906 C28.4938839,22.768247 29.3888977,23.6512262 30.4961518,23.6512262 C31.603406,23.6512262 32.4984198,22.768247 32.4984198,21.6802906 L32.4984198,15.2392734 L38.164838,18.459782 C38.4791941,18.6391371 38.8235842,18.7238874 39.1639697,18.7238874 C39.8567545,18.7238874 40.5295165,18.3710899 40.899936,17.7384196 C41.452562,16.7943415 41.1241901,15.5900999 40.167106,15.0461217 L34.5006877,11.8256131 L40.167106,8.60510445 C41.1261923,8.06112625 41.4545643,6.85491371 40.9019383,5.91280654 Z" id="Shape"></path>
                        <path d="M63.0118674,82.2070845 C62.4572392,81.2630064 61.2298489,80.9397729 60.2767694,81.4857221 L54.6103511,84.7062307 L54.6103511,78.2652134 C54.6103511,77.177257 53.7153374,76.2942779 52.6080832,76.2942779 C51.500829,76.2942779 50.6058153,77.177257 50.6058153,78.2652134 L50.6058153,84.7062307 L44.9373947,81.4857221 C43.9803106,80.9417439 42.7549227,81.2649773 42.2022967,82.2070845 C41.6496708,83.1491916 41.9780427,84.3554042 42.9351268,84.8993824 L48.601545,88.119891 L42.9351268,91.3403996 C41.9760404,91.8843778 41.6476685,93.0905904 42.2022967,94.0326975 C42.5747186,94.6653678 43.2454783,95.0181653 43.938263,95.0181653 C44.2786486,95.0181653 44.6230387,94.9334151 44.9373947,94.7540599 L50.603813,91.5335513 L50.603813,97.9745686 C50.603813,99.062525 51.4988268,99.9455041 52.6060809,99.9455041 C53.7133351,99.9455041 54.6083489,99.062525 54.6083489,97.9745686 L54.6083489,91.5335513 L60.2747671,94.7540599 C60.5891232,94.9334151 60.9335133,95.0181653 61.2738988,95.0181653 C61.9666835,95.0181653 62.6394456,94.6653678 63.0098651,94.0326975 C63.5624911,93.0886194 63.2341191,91.8843778 62.2770351,91.3403996 L56.6106168,88.119891 L62.2770351,84.8993824 C63.2361214,84.3554042 63.5644933,83.1511626 63.0118674,82.2070845 Z" id="Shape"></path>
                        <path d="M21.0792433,82.2070845 C20.5246151,81.2630064 19.2972248,80.9397729 18.3441453,81.4857221 L12.677727,84.7062307 L12.677727,78.2652134 C12.677727,77.177257 11.7827132,76.2942779 10.6754591,76.2942779 C9.56820491,76.2942779 8.67319114,77.177257 8.67319114,78.2652134 L8.67319114,84.7062307 L3.00477061,81.4857221 C2.04768654,80.9417439 0.822298559,81.2649773 0.269672608,82.2070845 C-0.282953342,83.1491916 0.0454185995,84.3554042 1.00250267,84.8993824 L6.66892094,88.119891 L1.00250267,91.3403996 C0.0434163315,91.8843778 -0.28495561,93.0905904 0.269672608,94.0326975 C0.642094445,94.6653678 1.3128542,95.0181653 2.00563891,95.0181653 C2.34602446,95.0181653 2.69041454,94.9334151 3.00477061,94.7540599 L8.67118887,91.5335513 L8.67118887,97.9745686 C8.67118887,99.062525 9.56620264,99.9455041 10.6734568,99.9455041 C11.780711,99.9455041 12.6757247,99.062525 12.6757247,97.9745686 L12.6757247,91.5335513 L18.342143,94.7540599 C18.6564991,94.9334151 19.0008892,95.0181653 19.3412747,95.0181653 C20.0340594,95.0181653 20.7068214,94.6653678 21.077241,94.0326975 C21.629867,93.0886194 21.301495,91.8843778 20.3444109,91.3403996 L14.6779927,88.119891 L20.3444109,84.8993824 C21.3034973,84.3554042 21.6318692,83.1511626 21.0792433,82.2070845 Z" id="Shape"></path>
                        <path d="M103.419669,82.2070845 C102.865041,81.2630064 101.63765,80.9397729 100.684571,81.4857221 L95.0181525,84.7062307 L95.0181525,78.2652134 C95.0181525,77.177257 94.1231388,76.2942779 93.0158846,76.2942779 C91.9086304,76.2942779 91.0136167,77.177257 91.0136167,78.2652134 L91.0136167,84.7062307 L85.3451961,81.4857221 C84.3881121,80.9417439 83.1627241,81.2649773 82.6100981,82.2070845 C82.0574722,83.1491916 82.3858441,84.3554042 83.3429282,84.8993824 L89.0093465,88.119891 L83.3429282,91.3403996 C82.3838419,91.8843778 82.0554699,93.0905904 82.6100981,94.0326975 C82.98252,94.6653678 83.6532797,95.0181653 84.3460644,95.0181653 C84.68645,95.0181653 85.0308401,94.9334151 85.3451961,94.7540599 L91.0116144,91.5335513 L91.0116144,97.9745686 C91.0116144,99.062525 91.9066282,99.9455041 93.0138823,99.9455041 C94.1211365,99.9455041 95.0161503,99.062525 95.0161503,97.9745686 L95.0161503,91.5335513 L100.682569,94.7540599 C100.996925,94.9334151 101.341315,95.0181653 101.6817,95.0181653 C102.374485,95.0181653 103.047247,94.6653678 103.417667,94.0326975 C103.970292,93.0886194 103.641921,91.8843778 102.684836,91.3403996 L97.0184182,88.119891 L102.684836,84.8993824 C103.643923,84.3554042 103.972295,83.1511626 103.419669,82.2070845 Z" id="Shape"></path>
                        <path d="M42.2009942,43.6784741 C42.5734497,44.3111444 43.2442702,44.6639419 43.9371175,44.6639419 C44.2775339,44.6639419 44.6219551,44.5791916 44.9363396,44.3998365 L50.6032705,41.1793279 L50.6032705,47.6203451 C50.6032705,48.7083015 51.4983652,49.5912807 52.6057195,49.5912807 C53.7130738,49.5912807 54.6081686,48.7083015 54.6081686,47.6203451 L54.6081686,41.1793279 L60.2750994,44.3998365 C60.5894839,44.5791916 60.9339052,44.6639419 61.2743215,44.6639419 C61.9671689,44.6639419 62.6399918,44.3111444 63.0104448,43.6784741 C63.5631208,42.734396 63.2347191,41.5301544 62.2775485,40.9861762 L56.6106176,37.7656676 L62.2775485,34.5451589 C63.2367216,34.0011807 63.5651232,32.7949682 63.0104448,31.852861 C62.4557665,30.9087829 61.2282652,30.5855495 60.2750994,31.1314986 L54.6081686,34.3520073 L54.6081686,27.91099 C54.6081686,26.8230336 53.7130738,25.9400545 52.6057195,25.9400545 C51.4983652,25.9400545 50.6032705,26.8230336 50.6032705,27.91099 L50.6032705,34.3520073 L44.9363396,31.1314986 C43.979169,30.5855495 42.7536701,30.9087829 42.2009942,31.852861 C41.6483183,32.7969391 41.9767199,34.0011807 42.9338906,34.5451589 L48.6008214,37.7656676 L42.9338906,40.9861762 C41.9767199,41.5301544 41.6483183,42.7363669 42.2009942,43.6784741 Z" id="Shape"></path>
                        <path d="M0.268370083,43.6784741 C0.640825608,44.3111444 1.31164604,44.6639419 2.00449342,44.6639419 C2.34490976,44.6639419 2.689331,44.5791916 3.0037155,44.3998365 L8.67064634,41.1793279 L8.67064634,47.6203451 C8.67064634,48.7083015 9.56574107,49.5912807 10.6730954,49.5912807 C11.7804497,49.5912807 12.6755445,48.7083015 12.6755445,47.6203451 L12.6755445,41.1793279 L18.3424753,44.3998365 C18.6568598,44.5791916 19.0012811,44.6639419 19.3416974,44.6639419 C20.0345448,44.6639419 20.7073677,44.3111444 21.0778207,43.6784741 C21.6304967,42.734396 21.302095,41.5301544 20.3449244,40.9861762 L14.6779935,37.7656676 L20.3449244,34.5451589 C21.3040975,34.0011807 21.6324991,32.7949682 21.0778207,31.852861 C20.5231423,30.9087829 19.2956411,30.5855495 18.3424753,31.1314986 L12.6755445,34.3520073 L12.6755445,27.91099 C12.6755445,26.8230336 11.7804497,25.9400545 10.6730954,25.9400545 C9.56574107,25.9400545 8.67064634,26.8230336 8.67064634,27.91099 L8.67064634,34.3520073 L3.0037155,31.1314986 C2.04654485,30.5855495 0.821046024,30.9087829 0.268370083,31.852861 C-0.284305858,32.7969391 0.0440957882,34.0011807 1.00126644,34.5451589 L6.66819728,37.7656676 L1.00126644,40.9861762 C0.0440957882,41.5301544 -0.284305858,42.7363669 0.268370083,43.6784741 Z" id="Shape"></path>
                        <path d="M102.685506,40.9861762 L97.0194591,37.7656676 L102.685506,34.5451589 C103.64453,34.0011807 103.97288,32.7949682 103.418288,31.852861 C102.863696,30.9087829 101.636387,30.5855495 100.683369,31.1314986 L95.0173223,34.3520073 L95.0173223,27.91099 C95.0173223,26.8230336 94.1223671,25.9400545 93.0151855,25.9400545 C91.9080038,25.9400545 91.0130487,26.8230336 91.0130487,27.91099 L91.0130487,34.3520073 L85.3449994,31.1314986 C84.387978,30.5855495 83.1626702,30.9087829 82.6100805,31.852861 C82.0574907,32.7969391 82.3858412,34.0011807 83.3428626,34.5451589 L89.0089097,37.7656676 L83.3428626,40.9861762 C82.383839,41.5301544 82.0554886,42.7363669 82.6100805,43.6784741 C82.9824779,44.3111444 83.6531938,44.6639419 84.3459331,44.6639419 C84.6862963,44.6639419 85.0306639,44.5791916 85.3449994,44.3998365 L91.0110465,41.1793279 L91.0110465,47.6203451 C91.0110465,48.7083015 91.9060017,49.5912807 93.0131833,49.5912807 C94.120365,49.5912807 95.0153201,48.7083015 95.0153201,47.6203451 L95.0153201,41.1793279 L100.681367,44.3998365 C100.995703,44.5791916 101.34007,44.6639419 101.680434,44.6639419 C102.373173,44.6639419 103.045891,44.3111444 103.416286,43.6784741 C103.970878,42.7363669 103.642528,41.5301544 102.685506,40.9861762 Z" id="Shape"></path>
                    </g>
                    <g id="clouds" fill-rule="nonzero">
                        <path d="M189.816317,39.786639 C188.987977,17.7145102 170.868492,0 148.657509,0 C126.632992,0 108.639013,17.4160925 107.527388,39.2257574 C105.526463,39.2689021 103.51478,39.5061982 101.517441,39.9771949 C93.1408099,41.9546621 86.5105053,47.4628069 82.7668395,54.5457347 C72.4323138,52.4424287 61.7965737,56.1025407 54.9762171,64.4043073 C50.4902727,69.8693074 48.2383358,76.6574128 48.485762,83.6720281 C31.8831063,80.6734688 14.9935796,88.0727913 6.01451911,102.885818 C0.291443826,112.323729 -1.41902416,123.429904 1.19150141,134.158562 C3.80202697,144.88722 10.4251598,153.954806 19.8381126,159.693056 C20.4190263,160.049 21.0644859,160.217984 21.6991878,160.217984 C22.9112176,160.217984 24.0909743,159.603171 24.765121,158.492194 C25.7942705,156.791572 25.2563875,154.584 23.563849,153.552122 C15.7860606,148.813391 10.3175832,141.324184 8.1588794,132.45794 C6.00017556,123.595292 7.41660084,114.419845 12.1392137,106.625029 C20.0138211,93.6312717 35.2574257,87.5155051 49.7551659,91.3014559 C51.3975021,96.5902816 54.5243953,101.293058 58.8848336,104.895644 C59.5553945,105.445739 60.3586331,105.715394 61.1618717,105.715394 C62.198193,105.715394 63.2237566,105.269565 63.9337622,104.40667 C65.1924085,102.871436 64.9700835,100.606338 63.4424957,99.3443541 C59.7992348,96.338604 57.4217918,92.3656927 56.3245105,88.1015545 C56.3209246,88.0584098 56.2994093,88.0224558 56.2958234,87.9793111 C54.6821743,81.5543405 55.9981948,74.4750082 60.5092403,68.9776495 C65.3717028,63.0596296 72.8267614,60.2660079 80.2065164,61.3482217 C79.2024681,65.5656198 79.1056491,70.0598633 80.1634857,74.5577022 C80.5507615,76.2151792 82.0281468,77.3297516 83.6525535,77.3297516 C83.9250809,77.3297516 84.2011942,77.2973931 84.4737216,77.2362714 C86.4029287,76.7796562 87.597029,74.8453338 87.1452073,72.9146068 C84.4271051,61.3338401 91.6132222,49.6991425 103.163363,46.9738332 C114.691989,44.2449286 126.313848,51.4500998 129.031951,63.0344619 C129.487358,64.9651889 131.416565,66.1444784 133.345772,65.7094356 C135.271394,65.2528205 136.465494,63.318498 136.013672,61.3841756 C134.256588,53.9057544 129.702511,47.5598826 123.190541,43.5150634 C120.51547,41.853991 117.636002,40.6926785 114.663302,39.9879811 C115.38048,21.7844972 130.333627,7.18719423 148.661095,7.18719423 C166.927602,7.18719423 181.841305,21.6874215 182.64813,39.8082114 C168.55918,41.6202904 157.625812,53.6972215 157.625812,68.308906 C157.625812,70.2971594 159.228703,71.9043009 161.211698,71.9043009 C163.194694,71.9043009 164.797585,70.2971594 164.797585,68.308906 C164.797585,56.4117446 174.447207,46.7365372 186.312906,46.7365372 C198.178605,46.7365372 207.828226,56.4117446 207.828226,68.308906 C207.828226,70.2971594 209.431118,71.9043009 211.414113,71.9043009 C213.397109,71.9043009 215,70.2971594 215,68.308906 C214.996414,53.646886 203.98057,41.5304055 189.816317,39.786639 Z" id="Shape" fill="#D6D6D6"></path>
                        <path d="M214.913878,64.7432315 L214.623216,64.7432315 C214.74881,65.8377591 214.834933,66.9430879 214.834933,68.0736197 C214.834933,70.0646518 213.230907,71.6740394 211.24651,71.6740394 C209.262112,71.6740394 207.658087,70.0646518 207.658087,68.0736197 C207.658087,56.1598309 198.00164,46.4711016 186.127548,46.4711016 C174.253457,46.4711016 164.59701,56.1598309 164.59701,68.0736197 C164.59701,70.0646518 162.992985,71.6740394 161.008587,71.6740394 C159.024189,71.6740394 157.420164,70.0646518 157.420164,68.0736197 C157.420164,53.4415141 168.361266,41.3477043 182.46018,39.5330928 C181.649196,21.390578 166.728534,6.86648501 148.449107,6.86648501 C130.108677,6.86648501 115.144953,21.4841889 114.427268,39.7131138 C117.402071,40.4187961 120.283574,41.585332 122.960538,43.2451255 C129.477114,47.2955977 134.034411,53.6503384 135.792739,61.1392114 C136.24488,63.0762372 135.049935,65.0132629 133.122952,65.4705162 C131.19238,65.906167 129.261809,64.7252294 128.806079,62.791804 C126.086055,51.1912518 114.455976,43.9760107 102.919196,46.7087293 C91.360885,49.4378474 84.1696852,61.0888055 86.8897099,72.6857573 C87.3418512,74.6191827 86.1469063,76.5562085 84.2163347,77.0134618 C83.9436146,77.0782693 83.667306,77.1070727 83.3945859,77.1070727 C81.7690303,77.1070727 80.2941884,75.9873422 79.9030503,74.3311491 C78.8480539,69.8270241 78.9413529,65.322899 79.9461114,61.1032072 C72.5611368,60.0194808 65.1008053,62.8170069 60.2349037,68.7432977 C55.7206676,74.2483394 54.4037163,81.3375658 56.0185067,87.7715158 C56.0220951,87.8147208 56.0436256,87.850725 56.0472141,87.8939301 C57.1452715,92.1640278 59.5279844,96.1388911 63.1702338,99.1524424 C64.698902,100.41979 64.9177958,102.684454 63.6618477,104.221833 C62.95134,105.085934 61.925051,105.532386 60.8879967,105.532386 C60.08419,105.532386 59.2803832,105.265955 58.6093481,104.71149 C54.2422373,101.10387 51.1167208,96.3909205 49.4732231,91.0983036 C34.9652288,87.3034612 19.7108426,93.4277751 11.8306657,106.443292 C7.10471255,114.249002 5.68728546,123.437273 7.84751611,132.312308 C10.0077468,141.190943 15.4800919,148.690617 23.2633814,153.43597 C24.9571171,154.46929 25.4953805,156.679948 24.4655031,158.382947 C23.7908796,159.499077 22.6067,160.111148 21.3974014,160.111148 C20.9201412,160.111148 20.4464693,159.981533 19.9907396,159.78351 C25.660448,163.153503 32.1877894,165.216543 39.1672722,165.518978 L153.996809,165.558583 C187.634686,165.558583 215,138.101783 215,104.351448 L215,68.3472516 L214.913878,64.7432315 Z" id="Shape" fill="#ECE9E6"></path>
                        <path d="M193.331467,132.707165 C193.331467,118.826992 182.139028,107.574932 168.3324,107.574932 C154.525773,107.574932 143.333333,118.826992 143.333333,132.707165 C143.333333,146.587338 154.525773,157.839397 168.3324,157.839397 C171.20015,157.839397 173.939334,157.329572 176.503524,156.439173 C178.907005,163.50133 185.492474,168.610354 193.331467,168.610354 C203.191813,168.610354 211.187943,160.57163 211.187943,150.658759 C211.187943,140.745889 203.195384,132.707165 193.331467,132.707165 Z" id="Shape" fill="#ECE9E6"></path>
                        <path d="M196.824005,129.995204 C195.17785,115.683815 183.011398,104.523161 168.275076,104.523161 C152.42095,104.523161 139.521277,117.431826 139.521277,133.297003 C139.521277,135.282398 141.131489,136.893733 143.115502,136.893733 C145.099514,136.893733 146.709726,135.282398 146.709726,133.297003 C146.709726,121.395422 156.381786,111.716621 168.275076,111.716621 C179.068533,111.716621 188.007371,119.697766 189.570859,130.067139 C179.517812,131.897875 171.869301,140.70267 171.869301,151.280654 C171.869301,153.266049 173.479514,154.877384 175.463526,154.877384 C177.447538,154.877384 179.057751,153.266049 179.057751,151.280654 C179.057751,143.346267 185.50579,136.893733 193.43465,136.893733 C201.363511,136.893733 207.81155,143.346267 207.81155,151.280654 C207.81155,153.266049 209.421763,154.877384 211.405775,154.877384 C213.389787,154.877384 215,153.266049 215,151.280654 C215,140.537221 207.107082,131.631717 196.824005,129.995204 Z" id="Shape" fill="#D6D6D6"></path>
                    </g>
                </g>
            </g>
        </g>
    </g>
</svg>