<?xml version="1.0" encoding="UTF-8"?>
<svg width="215px" height="168px" viewBox="0 0 215 168" version="1.1" xmlns="http://www.w3.org/2000/svg" xmlns:xlink="http://www.w3.org/1999/xlink">
    <!-- Generator: Sketch 51.2 (57519) - http://www.bohemiancoding.com/sketch -->
    <title>nuageux@svg</title>
    <desc>Created with Sketch.</desc>
    <defs></defs>
    <g id="Page-1" stroke="none" stroke-width="1" fill="none" fill-rule="evenodd">
        <g id="Nuageux" transform="translate(-907.000000, -309.000000)">
            <g id="nuageux" transform="translate(907.000000, 309.000000)">
                <g id="clouds">
                    <path d="M189.816317,39.642615 C188.987977,17.6503853 170.868492,0 148.657509,0 C126.632992,0 108.639013,17.3530478 107.527388,39.0837637 C105.526463,39.1267523 103.51478,39.3631893 101.517441,39.8324811 C93.1408099,41.80279 86.5105053,47.2909959 82.7668395,54.3482841 C72.4323138,52.2525919 61.7965737,55.8994545 54.9762171,64.1711695 C50.4902727,69.6163868 48.2383358,76.3799199 48.485762,83.3691429 C31.8831063,80.3814382 14.9935796,87.7539758 6.01451911,102.513381 C0.291443826,111.917128 -1.41902416,122.983099 1.19150141,133.67292 C3.80202697,144.362742 10.4251598,153.397503 19.8381126,159.114982 C20.4190263,159.469637 21.0644859,159.638009 21.6991878,159.638009 C22.9112176,159.638009 24.0909743,159.025422 24.765121,157.918467 C25.7942705,156.224001 25.2563875,154.02442 23.563849,152.996277 C15.7860606,148.2747 10.3175832,140.812603 8.1588794,131.978455 C6.00017556,123.147888 7.41660084,114.005655 12.1392137,106.239056 C20.0138211,93.292335 35.2574257,87.1987069 49.7551659,90.9709529 C51.3975021,96.2406336 54.5243953,100.926386 58.8848336,104.515931 C59.5553945,105.064035 60.3586331,105.332714 61.1618717,105.332714 C62.198193,105.332714 63.2237566,104.888498 63.9337622,104.028727 C65.1924085,102.499051 64.9700835,100.242152 63.4424957,98.9847365 C59.7992348,95.989867 57.4217918,92.0313373 56.3245105,87.7826348 C56.3209246,87.7396463 56.2994093,87.7038225 56.2958234,87.6608339 C54.6821743,81.2591212 55.9981948,74.2054154 60.5092403,68.7279566 C65.3717028,62.8313595 72.8267614,60.0478504 80.2065164,61.1261467 C79.2024681,65.3282782 79.1056491,69.806253 80.1634857,74.2878101 C80.5507615,75.9392872 82.0281468,77.0498249 83.6525535,77.0498249 C83.9250809,77.0498249 84.2011942,77.0175835 84.4737216,76.9566831 C86.4029287,76.5017208 87.597029,74.5744005 87.1452073,72.6506625 C84.4271051,61.1118172 91.6132222,49.5192361 103.163363,46.8037922 C114.691989,44.0847659 126.313848,51.2638551 129.031951,62.8062828 C129.487358,64.7300208 131.416565,65.9050413 133.345772,65.4715734 C135.271394,65.0166112 136.465494,63.0892908 136.013672,61.1619705 C134.256588,53.7106205 129.702511,47.3877201 123.190541,43.3575428 C120.51547,41.7024834 117.636002,40.5453747 114.663302,39.8432282 C115.38048,21.7056393 130.333627,7.16117724 148.661095,7.16117724 C166.927602,7.16117724 181.841305,21.608915 182.64813,39.6641092 C168.55918,41.4696287 157.625812,53.5028424 157.625812,68.061634 C157.625812,70.04269 159.228703,71.6440138 161.211698,71.6440138 C163.194694,71.6440138 164.797585,70.04269 164.797585,68.061634 C164.797585,56.2075392 174.447207,46.5673551 186.312906,46.5673551 C198.178605,46.5673551 207.828226,56.2075392 207.828226,68.061634 C207.828226,70.04269 209.431118,71.6440138 211.414113,71.6440138 C213.397109,71.6440138 215,70.04269 215,68.061634 C214.996414,53.4526891 203.98057,41.3800692 189.816317,39.642615 Z" id="Shape" fill="#A0C8E0" fill-rule="nonzero"></path>
                    <path d="M214.913878,64.5088668 L214.623216,64.5088668 C214.74881,65.5994323 214.834933,66.70076 214.834933,67.8271993 C214.834933,69.8110241 213.230907,71.4145858 211.24651,71.4145858 C209.262112,71.4145858 207.658087,69.8110241 207.658087,67.8271993 C207.658087,55.9565374 198.00164,46.3028804 186.127548,46.3028804 C174.253457,46.3028804 164.59701,55.9565374 164.59701,67.8271993 C164.59701,69.8110241 162.992985,71.4145858 161.008587,71.4145858 C159.024189,71.4145858 157.420164,69.8110241 157.420164,67.8271993 C157.420164,53.2480606 168.361266,41.1980294 182.46018,39.3899866 C181.649196,21.3131461 166.728534,6.84162896 148.449107,6.84162896 C130.108677,6.84162896 115.144953,21.4064181 114.427268,39.5693559 C117.402071,40.2724837 120.283574,41.4347969 122.960538,43.0885821 C129.477114,47.1243919 134.034411,53.456129 135.792739,60.917893 C136.24488,62.8479069 135.049935,64.7779208 133.122952,65.2335189 C131.19238,65.6675927 129.261809,64.4909299 128.806079,62.5645034 C126.086055,51.0059441 114.455976,43.8168215 102.919196,46.5396479 C91.360885,49.2588869 84.1696852,60.8676695 86.8897099,72.4226414 C87.3418512,74.349068 86.1469063,76.2790819 84.2163347,76.73468 C83.9436146,76.799253 83.667306,76.827952 83.3945859,76.827952 C81.7690303,76.827952 80.2941884,75.7122748 79.9030503,74.0620771 C78.8480539,69.5742566 78.9413529,65.0864361 79.9461114,60.8820191 C72.5611368,59.8022158 65.1008053,62.5896151 60.2349037,68.4944532 C55.7206676,73.9795672 54.4037163,81.0431312 56.0185067,87.4537908 C56.0220951,87.4968395 56.0436256,87.5327133 56.0472141,87.575762 C57.1452715,91.8304024 59.5279844,95.790877 63.1702338,98.7935195 C64.698902,100.05628 64.9177958,102.312746 63.6618477,103.84456 C62.95134,104.705532 61.925051,105.150368 60.8879967,105.150368 C60.08419,105.150368 59.2803832,104.884902 58.6093481,104.332444 C54.2422373,100.737883 51.1167208,96.0419941 49.4732231,90.768536 C34.9652288,86.9874306 19.7108426,93.089575 11.8306657,106.057977 C7.10471255,113.835431 5.68728546,122.990441 7.84751611,131.833349 C10.0077468,140.679844 15.4800919,148.15237 23.2633814,152.880546 C24.9571171,153.910126 25.4953805,156.112781 24.4655031,157.809615 C23.7908796,158.921705 22.6067,159.53156 21.3974014,159.53156 C20.9201412,159.53156 20.4464693,159.402414 19.9907396,159.205108 C25.660448,162.562902 32.1877894,164.618474 39.1672722,164.919815 L153.996809,164.959276 C187.634686,164.959276 215,137.601867 215,103.973706 L215,68.0998407 L214.913878,64.5088668 Z" id="Shape" fill="#F8F8F8" fill-rule="nonzero"></path>
                    <path d="M193.331467,132.226777 C193.331467,118.396849 182.139028,107.18552 168.3324,107.18552 C154.525773,107.18552 143.333333,118.396849 143.333333,132.226777 C143.333333,146.056705 154.525773,157.268033 168.3324,157.268033 C171.20015,157.268033 173.939334,156.760053 176.503524,155.872877 C178.907005,162.90947 185.492474,168 193.331467,168 C203.191813,168 211.187943,159.990375 211.187943,150.113388 C211.187943,140.236401 203.195384,132.226777 193.331467,132.226777 Z" id="Shape" fill="#F8F8F8" fill-rule="nonzero"></path>
                    <path d="M196.824005,129.524633 C195.17785,115.26505 183.011398,104.144796 168.275076,104.144796 C152.42095,104.144796 139.521277,117.006733 139.521277,132.81448 C139.521277,134.792688 141.131489,136.39819 143.115502,136.39819 C145.099514,136.39819 146.709726,134.792688 146.709726,132.81448 C146.709726,120.955982 156.381786,111.312217 168.275076,111.312217 C179.068533,111.312217 188.007371,119.264471 189.570859,129.596308 C179.517812,131.420416 171.869301,140.193339 171.869301,150.733032 C171.869301,152.71124 173.479514,154.316742 175.463526,154.316742 C177.447538,154.316742 179.057751,152.71124 179.057751,150.733032 C179.057751,142.827367 185.50579,136.39819 193.43465,136.39819 C201.363511,136.39819 207.81155,142.827367 207.81155,150.733032 C207.81155,152.71124 209.421763,154.316742 211.405775,154.316742 C213.389787,154.316742 215,152.71124 215,150.733032 C215,140.028489 207.107082,131.155222 196.824005,129.524633 Z" id="Shape" fill="#A0C8E0" fill-rule="nonzero"></path>
                </g>
            </g>
        </g>
    </g>
</svg>