<?xml version="1.0" encoding="UTF-8"?>
<svg width="215px" height="245px" viewBox="0 0 215 245" version="1.1" xmlns="http://www.w3.org/2000/svg" xmlns:xlink="http://www.w3.org/1999/xlink">
    <!-- Generator: Sketch 51.2 (57519) - http://www.bohemiancoding.com/sketch -->
    <title>pluie@svg</title>
    <desc>Created with Sketch.</desc>
    <defs></defs>
    <g id="Page-1" stroke="none" stroke-width="1" fill="none" fill-rule="evenodd">
        <g id="Pluie" transform="translate(-907.000000, -333.000000)">
            <g id="pluie" transform="translate(907.000000, 333.000000)">
                <g id="Group">
                    <g id="raining" transform="translate(49.556738, 84.456522)" fill="#D0E8F9" fill-rule="nonzero">
                        <path d="M54.0079646,96.2726466 C52.4715014,95.4125312 50.5197777,95.9752833 49.6668969,97.5196542 L43.0962005,109.385411 C42.2401253,110.929782 42.7991296,112.877032 44.3451758,113.730753 C44.8339053,114.002537 45.3641608,114.130435 45.8880277,114.130435 C47.012425,114.130435 48.1016848,113.535708 48.6862436,112.483745 L55.25694,100.617988 C56.1098208,99.0736175 55.5508165,97.1263672 54.0079646,96.2726466 Z" id="Shape"></path>
                        <path d="M63.3906522,74.6922766 L56.8195378,86.5589554 C55.9638242,88.1034463 56.5225924,90.0508479 58.0647927,90.9046349 C58.5565088,91.1764397 59.0865404,91.3043478 59.610186,91.3043478 C60.7341084,91.3043478 61.8229082,90.7095749 62.4072201,89.6575304 L68.9783345,77.7908516 C69.8340481,76.2463607 69.2752799,74.298959 67.7330796,73.4451721 C66.1844934,72.5881875 64.2431729,73.1477857 63.3906522,74.6922766 Z" id="Shape"></path>
                        <path d="M65.4458455,122.903799 C63.9004523,122.043565 61.9623248,122.603197 61.1034182,124.15098 L54.5323038,136.015187 C53.6765902,137.559772 54.2353584,139.507293 55.7775587,140.361132 C56.2692747,140.632954 56.7993063,140.76087 57.322952,140.76087 C58.4468744,140.76087 59.5324812,140.16606 60.1199861,139.113951 L66.6911005,127.249745 C67.5468141,125.705159 66.9880459,123.757639 65.4458455,122.903799 Z" id="Shape"></path>
                        <path d="M78.4051278,99.3168429 C76.8654702,98.456608 74.9201352,99.0162404 74.06406,100.564024 L67.4933636,112.42823 C66.6372885,113.972816 67.1962928,115.920336 68.742339,116.774176 C69.2310685,117.045997 69.761324,117.173913 70.2851909,117.173913 C71.4095881,117.173913 72.4988479,116.579104 73.0834067,115.526995 L79.6541031,103.662788 C80.506984,102.121401 79.9479796,100.17388 78.4051278,99.3168429 Z" id="Shape"></path>
                        <path d="M30.3726374,93.2298864 C28.8330581,92.3696515 26.8846279,92.9292839 26.0317905,94.4770672 L19.4614283,106.341274 C18.6053967,107.885859 19.1643726,109.83338 20.7103401,110.687219 C21.1990448,110.959041 21.7292733,111.086957 22.2531136,111.086957 C23.3774536,111.086957 24.466658,110.492147 25.0511871,109.440038 L31.6215492,97.5758317 C32.4743867,96.0312463 31.918605,94.0837255 30.3726374,93.2298864 Z" id="Shape"></path>
                        <path d="M17.4157434,116.816843 C15.8669091,115.956608 13.9316645,116.51624 13.0726203,118.064024 L6.50045316,129.92823 C5.64460244,131.472816 6.20346019,133.420336 7.74590758,134.274176 C8.23770241,134.545997 8.7678189,134.673913 9.29154845,134.673913 C10.4156509,134.673913 11.5014317,134.079104 12.0890307,133.026995 L18.6611979,121.162788 C19.5138551,119.618203 18.9549974,117.67388 17.4157434,116.816843 Z" id="Shape"></path>
                        <path d="M41.8129066,119.86025 C40.2640722,119.000166 38.3256342,119.559701 37.4697834,121.107213 L30.8976163,132.97254 C30.0417656,134.516855 30.6006233,136.464034 32.1430707,137.317724 C32.6348655,137.589498 33.164982,137.717391 33.6887116,137.717391 C34.812814,137.717391 35.9017883,137.122686 36.4861938,136.070761 L43.058361,124.205435 C43.9110182,122.664317 43.3521605,120.717137 41.8129066,119.86025 Z" id="Shape"></path>
                        <path d="M28.0841665,142.68569 C26.5447556,141.825575 24.5965384,142.388327 23.7437942,143.932698 L17.1741504,155.798455 C16.3182124,157.342825 16.8771272,159.290076 18.4229257,160.143796 C18.9115769,160.41558 19.4417474,160.543478 19.9655304,160.543478 C21.0897475,160.543478 22.1788329,159.948752 22.763298,158.896789 L29.3329418,147.031032 C30.1888798,145.486661 29.629965,143.542608 28.0841665,142.68569 Z" id="Shape"></path>
                        <path d="M43.3342058,70.4037995 C41.7977425,69.5435645 39.8460189,70.1031969 38.993138,71.6509802 L32.4224416,83.5151869 C31.5663665,85.0597723 32.1253708,87.007293 33.671417,87.8611321 C34.1601465,88.1329536 34.690402,88.2608696 35.2142689,88.2608696 C36.3386661,88.2608696 37.4279259,87.6660603 38.0124847,86.6139514 L44.5831811,74.7497447 C45.436062,73.2083572 44.8770577,71.2608365 43.3342058,70.4037995 Z" id="Shape"></path>
                        <path d="M102.039304,102.358216 C100.502919,101.501231 98.5512946,102.060829 97.6984571,103.60532 L91.128095,115.471999 C90.2720634,117.01649 90.8310392,118.963891 92.3770068,119.817678 C92.8657114,120.089483 93.39594,120.217391 93.9197802,120.217391 C95.0441203,120.217391 96.1333247,119.622618 96.7178537,118.570574 L103.288216,106.703895 C104.141053,105.159404 103.585272,103.2152 102.039304,102.358216 Z" id="Shape"></path>
                        <path d="M115.004396,78.7712591 C113.455562,77.9142745 111.51393,78.4738726 110.661273,80.0183636 L104.089106,91.8850424 C103.233255,93.4295333 103.792113,95.3769349 105.33456,96.2307218 C105.826355,96.5025266 106.356471,96.6304348 106.880201,96.6304348 C108.004303,96.6304348 109.093278,96.0356619 109.677683,94.9836173 L116.24985,83.1169385 C117.102508,81.5724476 116.54365,79.6282437 115.004396,78.7712591 Z" id="Shape"></path>
                        <path d="M83.9849658,44.4916059 C84.4767606,44.7634008 85.0068771,44.8913043 85.5306067,44.8913043 C86.6547091,44.8913043 87.7436834,44.296553 88.3280889,43.2445466 L94.9002561,31.3782979 C95.7561068,29.8338629 95.197249,27.8865319 93.6548016,27.032776 C92.1091608,26.1758224 90.1643358,26.7322027 89.3116785,28.2798352 L82.7395114,40.1460839 C81.8868541,41.6905189 82.4457119,43.6378499 83.9849658,44.4916059 Z" id="Shape"></path>
                        <path d="M96.1888831,20.9046349 C96.6775343,21.1764397 97.2077049,21.3043478 97.7314879,21.3043478 C98.855705,21.3043478 99.9447903,20.7095749 100.529255,19.6575304 L107.098899,7.79085159 C107.954837,6.24636066 107.395922,4.29895905 105.850124,3.44517213 C104.310713,2.58818751 102.362496,3.14778568 101.509752,4.69227661 L94.9401079,16.5589554 C94.0841698,18.1034463 94.6430846,20.0508479 96.1888831,20.9046349 Z" id="Shape"></path>
                        <path d="M91.3696441,76.490756 C89.8240033,75.630521 87.8823718,76.1901534 87.026521,77.7379367 L80.4543539,89.6021434 C79.5985031,91.1467288 80.1573609,93.0942495 81.6998083,93.9480887 C82.1916031,94.2199101 82.7217196,94.3478261 83.2454492,94.3478261 C84.3695516,94.3478261 85.4553324,93.7530168 86.0429314,92.7009079 L92.6150986,80.8367012 C93.4677558,79.2921158 92.9088981,77.3445951 91.3696441,76.490756 Z" id="Shape"></path>
                        <path d="M99.9849289,54.1490871 L93.4152852,66.014646 C92.5593471,67.5594075 93.1182619,69.5071501 94.6640604,70.3610866 C95.1527116,70.632939 95.6828822,70.7608696 96.2066652,70.7608696 C97.3308823,70.7608696 98.4199676,70.1659925 99.0044328,69.1137637 L105.574077,57.2482048 C106.430015,55.7034434 105.8711,53.7557007 104.325301,52.9017642 C102.789084,52.0446295 100.837673,52.6043257 99.9849289,54.1490871 Z" id="Shape"></path>
                        <path d="M60.354313,41.4480887 C60.8430176,41.7199101 61.3732461,41.8478261 61.8970864,41.8478261 C63.0214264,41.8478261 64.1106308,41.2530168 64.6951599,40.2009079 L71.265522,28.3367012 C72.1215537,26.7921158 71.5625778,24.8445951 70.0166102,23.990756 C68.4802251,23.130521 66.5286008,23.6901534 65.6757633,25.2379367 L59.1054011,37.1021434 C58.2525637,38.6435309 58.8083454,40.5910516 60.354313,41.4480887 Z" id="Shape"></path>
                        <path d="M46.6303332,64.2741756 C47.1190627,64.5459971 47.6493182,64.673913 48.1731851,64.673913 C49.2975824,64.673913 50.3868422,64.0791038 50.971401,63.0269949 L57.5420974,51.1627882 C58.3981725,49.6182028 57.8391682,47.6706821 56.293122,46.8168429 C54.7566587,45.956608 52.8081294,46.5162404 51.9520543,48.0640237 L45.3813579,59.9282304 C44.528477,61.4728158 45.0874813,63.4203365 46.6303332,64.2741756 Z" id="Shape"></path>
                        <path d="M11.3129292,82.5769945 C9.77327159,81.716879 7.82474228,82.2796311 6.97186142,83.8240021 L0.401165044,95.6897589 C-0.454910128,97.2341298 0.104094182,99.1813801 1.65014039,100.035101 C2.13886987,100.306884 2.66912539,100.434783 3.19299228,100.434783 C4.31738952,100.434783 5.40664935,99.8400559 5.99120814,98.7880931 L12.5619045,86.9223363 C13.4147854,85.3779654 12.8557811,83.4339125 11.3129292,82.5769945 Z" id="Shape"></path>
                        <path d="M14.6073459,77.2090282 C15.099062,77.4808021 15.6290936,77.6086957 16.1527392,77.6086957 C17.2766616,77.6086957 18.3654614,77.0139905 18.9497733,75.9620658 L25.5208877,64.0967391 C26.3766013,62.5524242 25.8178331,60.6052445 24.2756328,59.7515548 C22.7302395,58.8914705 20.7857261,59.4510049 19.9332054,60.9985172 L13.362091,72.8638439 C12.5063774,74.4049615 13.0651456,76.3521412 14.6073459,77.2090282 Z" id="Shape"></path>
                        <path d="M40.5266333,30.7959847 C41.0184666,31.0677586 41.5486246,31.1956522 42.0723952,31.1956522 C43.1965856,31.1956522 44.2856451,30.600947 44.8700963,29.5490224 L51.4427779,17.6836957 C52.2986956,16.1393807 51.7397941,14.192201 50.197226,13.3385114 C48.6482704,12.4784271 46.7064869,13.0379615 45.853763,14.5854737 L39.2842752,26.4508004 C38.4283574,27.9951154 38.9872589,29.9422951 40.5266333,30.7959847 Z" id="Shape"></path>
                        <path d="M26.8082137,53.6220572 C27.2969183,53.8938409 27.8271468,54.0217391 28.3509871,54.0217391 C29.4753271,54.0217391 30.5645315,53.4270124 31.1490606,52.3750496 L37.7194227,40.5092928 C38.5754544,38.9649219 38.0164785,37.0176716 36.4705109,36.163951 C34.9309317,35.3038355 32.9856956,35.8665877 32.129664,37.4109586 L25.5593019,49.2767154 C24.7064644,50.8210863 25.2622461,52.7651392 26.8082137,53.6220572 Z" id="Shape"></path>
                        <path d="M75.5877658,51.1053201 L69.0181221,62.9719989 C68.162184,64.5164898 68.7210988,66.4638914 70.2668973,67.3176783 C70.7555485,67.5894832 71.2857191,67.7173913 71.809502,67.7173913 C72.9337192,67.7173913 74.0228045,67.1226184 74.6072696,66.0705738 L81.1769134,54.2038951 C82.0328514,52.6594041 81.4739367,50.7120025 79.9281381,49.8582156 C78.3887272,49.001231 76.4437038,49.5608292 75.5877658,51.1053201 Z" id="Shape"></path>
                        <path d="M72.5523191,17.8611321 C73.0410485,18.1329536 73.5713041,18.2608696 74.095171,18.2608696 C75.2195682,18.2608696 76.308828,17.6660603 76.8933868,16.6139514 L83.4640832,4.74974471 C84.3201584,3.20515931 83.761154,1.25763859 82.2151078,0.403799456 C80.6786446,-0.456435476 78.7269209,0.103196914 77.8740401,1.65098021 L71.3033437,13.5151869 C70.4504629,15.0565744 71.0094672,17.0040951 72.5523191,17.8611321 Z" id="Shape"></path>
                    </g>
                    <g id="clouds" fill-rule="nonzero">
                        <path d="M189.816317,39.6785231 C188.987977,17.666373 170.868492,0 148.657509,0 C126.632992,0 108.639013,17.3687661 107.527388,39.1191657 C105.526463,39.1621932 103.51478,39.3988444 101.517441,39.8685612 C93.1408099,41.8406548 86.5105053,47.3338319 82.7668395,54.3975126 C72.4323138,52.2999221 61.7965737,55.9500881 54.9762171,64.2292956 C50.4902727,69.6794452 48.2383358,76.4491046 48.485762,83.4446584 C31.8831063,80.4542474 14.9935796,87.8334631 6.01451911,102.606237 C0.291443826,112.018502 -1.41902416,123.094497 1.19150141,133.794001 C3.80202697,144.493505 10.4251598,153.53645 19.8381126,159.259107 C20.4190263,159.614084 21.0644859,159.782609 21.6991878,159.782609 C22.9112176,159.782609 24.0909743,159.169467 24.765121,158.061509 C25.7942705,156.365508 25.2563875,154.163935 23.563849,153.13486 C15.7860606,148.409007 10.3175832,140.940151 8.1588794,132.098 C6.00017556,123.259435 7.41660084,114.108921 12.1392137,106.335287 C20.0138211,93.3768389 35.2574257,87.2776913 49.7551659,91.0533541 C51.3975021,96.3278081 54.5243953,101.017805 58.8848336,104.610601 C59.5553945,105.159202 60.3586331,105.428124 61.1618717,105.428124 C62.198193,105.428124 63.2237566,104.983506 63.9337622,104.122956 C65.1924085,102.591894 64.9700835,100.332951 63.4424957,99.0743966 C59.7992348,96.0768143 57.4217918,92.114699 56.3245105,87.8621481 C56.3209246,87.8191206 56.2994093,87.7832644 56.2958234,87.7402369 C54.6821743,81.3327255 55.9981948,74.2726304 60.5092403,68.7902102 C65.3717028,62.8882719 72.8267614,60.1022415 80.2065164,61.1815146 C79.2024681,65.3874524 79.1056491,69.8694833 80.1634857,74.3550998 C80.5507615,76.0080728 82.0281468,77.1196164 83.6525535,77.1196164 C83.9250809,77.1196164 84.2011942,77.0873458 84.4737216,77.0263902 C86.4029287,76.5710159 87.597029,74.6419498 87.1452073,72.7164693 C84.4271051,61.1671721 91.6132222,49.5640905 103.163363,46.8461869 C114.691989,44.1246978 126.313848,51.3102897 129.031951,62.8631726 C129.487358,64.788653 131.416565,65.9647379 133.345772,65.5308774 C135.271394,65.075503 136.465494,63.1464369 136.013672,61.2173708 C134.256588,53.7592714 129.702511,47.4306438 123.190541,43.396816 C120.51547,41.7402573 117.636002,40.5821006 114.663302,39.8793181 C115.38048,21.7253002 130.333627,7.16766381 148.661095,7.16766381 C166.927602,7.16766381 181.841305,21.6284883 182.64813,39.7000369 C168.55918,41.5071917 157.625812,53.5513052 157.625812,68.123284 C157.625812,70.1061345 159.228703,71.7089087 161.211698,71.7089087 C163.194694,71.7089087 164.797585,70.1061345 164.797585,68.123284 C164.797585,56.2584518 174.447207,46.6095357 186.312906,46.6095357 C198.178605,46.6095357 207.828226,56.2584518 207.828226,68.123284 C207.828226,70.1061345 209.431118,71.7089087 211.414113,71.7089087 C213.397109,71.7089087 215,70.1061345 215,68.123284 C214.996414,53.5011064 203.98057,41.4175511 189.816317,39.6785231 Z" id="Shape" fill="#3590C8"></path>
                        <path d="M214.913878,64.5672988 L214.623216,64.5672988 C214.74881,65.6588521 214.834933,66.7611773 214.834933,67.888637 C214.834933,69.8742587 213.230907,71.479273 211.24651,71.479273 C209.262112,71.479273 207.658087,69.8742587 207.658087,67.888637 C207.658087,56.0072227 198.00164,46.3448214 186.127548,46.3448214 C174.253457,46.3448214 164.59701,56.0072227 164.59701,67.888637 C164.59701,69.8742587 162.992985,71.479273 161.008587,71.479273 C159.024189,71.479273 157.420164,69.8742587 157.420164,67.888637 C157.420164,53.2962926 168.361266,41.2353465 182.46018,39.4256659 C181.649196,21.3324515 166.728534,6.84782609 148.449107,6.84782609 C130.108677,6.84782609 115.144953,21.425808 114.427268,39.6051977 C117.402071,40.3089624 120.283574,41.4723284 122.960538,43.1276116 C129.477114,47.167077 134.034411,53.5045495 135.792739,60.9730722 C136.24488,62.9048343 135.049935,64.8365965 133.122952,65.2926072 C131.19238,65.7270742 129.261809,64.5493456 128.806079,62.6211741 C126.086055,51.0521451 114.455976,43.8565107 102.919196,46.5818034 C91.360885,49.3035054 84.1696852,60.9228033 86.8897099,72.4882417 C87.3418512,74.4164132 86.1469063,76.3481753 84.2163347,76.8041861 C83.9436146,76.8688175 83.667306,76.8975426 83.3945859,76.8975426 C81.7690303,76.8975426 80.2941884,75.7808548 79.9030503,74.1291623 C78.8480539,69.6372767 78.9413529,65.1453912 79.9461114,60.9371658 C72.5611368,59.8563844 65.1008053,62.6463086 60.2349037,68.5564953 C55.7206676,74.0465777 54.4037163,81.1165398 56.0185067,87.5330062 C56.0220951,87.5760939 56.0436256,87.6120002 56.0472141,87.6550879 C57.1452715,91.9135821 59.5279844,95.8776441 63.1702338,98.8830064 C64.698902,100.14691 64.9177958,102.40542 63.6618477,103.938622 C62.95134,104.800374 61.925051,105.245613 60.8879967,105.245613 C60.08419,105.245613 59.2803832,104.979906 58.6093481,104.426948 C54.2422373,100.829131 51.1167208,96.1289887 49.4732231,90.8507538 C34.9652288,87.0662236 19.7108426,93.1738953 11.8306657,106.154044 C7.10471255,113.938543 5.68728546,123.101846 7.84751611,131.952763 C10.0077468,140.807272 15.4800919,148.286566 23.2633814,153.019024 C24.9571171,154.049537 25.4953805,156.254187 24.4655031,157.952558 C23.7908796,159.065655 22.6067,159.676063 21.3974014,159.676063 C20.9201412,159.676063 20.4464693,159.546801 19.9907396,159.349316 C25.660448,162.710151 32.1877894,164.767585 39.1672722,165.069199 L153.996809,165.108696 C187.634686,165.108696 215,137.726506 215,104.067885 L215,68.1615253 L214.913878,64.5672988 Z" id="Shape" fill="#C1E5FF"></path>
                        <path d="M193.331467,132.346547 C193.331467,118.504092 182.139028,107.282609 168.3324,107.282609 C154.525773,107.282609 143.333333,118.504092 143.333333,132.346547 C143.333333,146.189003 154.525773,157.410486 168.3324,157.410486 C171.20015,157.410486 173.939334,156.902046 176.503524,156.014066 C178.907005,163.057033 185.492474,168.152174 193.331467,168.152174 C203.191813,168.152174 211.187943,160.135294 211.187943,150.249361 C211.187943,140.363427 203.195384,132.346547 193.331467,132.346547 Z" id="Shape" fill="#C1E5FF"></path>
                        <path d="M196.824005,129.641957 C195.17785,115.369457 183.011398,104.23913 168.275076,104.23913 C152.42095,104.23913 139.521277,117.112717 139.521277,132.934783 C139.521277,134.914783 141.131489,136.521739 143.115502,136.521739 C145.099514,136.521739 146.709726,134.914783 146.709726,132.934783 C146.709726,121.065543 156.381786,111.413043 168.275076,111.413043 C179.068533,111.413043 188.007371,119.3725 189.570859,129.713696 C179.517812,131.539457 171.869301,140.320326 171.869301,150.869565 C171.869301,152.849565 173.479514,154.456522 175.463526,154.456522 C177.447538,154.456522 179.057751,152.849565 179.057751,150.869565 C179.057751,142.956739 185.50579,136.521739 193.43465,136.521739 C201.363511,136.521739 207.81155,142.956739 207.81155,150.869565 C207.81155,152.849565 209.421763,154.456522 211.405775,154.456522 C213.389787,154.456522 215,152.849565 215,150.869565 C215,140.155326 207.107082,131.274022 196.824005,129.641957 Z" id="Shape" fill="#3590C8"></path>
                    </g>
                </g>
            </g>
        </g>
    </g>
</svg>